<svg xmlns="http://www.w3.org/2000/svg" width="1016" height="493" xmlns:v="https://vecta.io/nano"><path d="M771.2 453.6l13.9-.2c-25.8-16.3-17.1-42-15.6-65.8-3.5.4-5 3.3-7 5.3-9.9 9.5-14.1 23-21.4 34.4-9.4 14.8-17 14.9-25.9 0-2.6-4.3-4.2-4.2-7.9-1.9-10.4 6.6-19.4 5.3-28.3-3.7-6.1-6.2-10.1-14.1-15.4-21-4.7-6.2-6-12.7-6.3-20.4-.4-9.6 2.1-18.8 1.9-28.3h0c-7.6 5.5-10.3 14.5-13.9 22.8-4.4 10.1-5.7 21.1-9 31.6-2.6 8.3-7.7 14.4-17.2 13.9-7.8-.5-14.9-6.8-17.2-15.8-.9-3.5-1.3-7.2-2-10.8-2.4-12.4-11.3-21.9-23.3-24.4 1.5 3.2 3.1 6 4.3 8.9 4.4 11.1-.1 23.5-10.4 28.8-9.4 4.8-20.1.6-25.3-10.8-6.3-13.7-8.5-27.7-2.1-42.5 7.4-17 15.7-33.6 19.4-52.1 3.8-18.8 8.2-37.6 3.1-57-1.5-5.7-3-11.5-8.2-15.1.5 22.3-1.3 43.8-8.6 64.4-1.6 4.6-3.9 9.9-9.3 9.7-5.2-.2-7.4-5.6-8.9-10.2-2.8-8.4-4-17.3-5-26.3-4.7 8.8-7.1 18-7.7 28-1.7 26.5 4.7 52.6 3.4 79-.8 17-4 33.4-16.2 46.3-5.7 5.9-12.3 8.1-19.8 6.9-6.5-1-4.9-8.2-6.8-12.5-4.7-10.5-11-18.7-21.9-21.8.3 2.5 1.2 4.3 2.2 6.1 6.9 12.8 3.3 26.5-9.1 35-7.8 5.3-16.3 2.1-24.8-9.9-6.3-8.8-11.4-18.6-18.4-26.8-9.3-10.9-10.4-22.9-9.2-36.7l3.1-32.3c-3 1.3-3.4 3.5-4.3 5.4-5.4 11.6-6.3 24.7-10.4 36.8-2.3 6.9-4.2 14.1-10.7 18.4-5.7 3.9-11-.1-17.5-1.8 2 5.2 1.9 9.4 1.9 13.7 0 7.6-3.4 13-9.7 16.1-5.2 2.5-10.9 3.4-15.6-.8-5.4-4.7-5.1-11.5-3.4-17.9 2.6-9.9 3.3-20 2.6-30.1-.9-12-4.3-23.3-11.3-35.2-1.9 26.2-13 46.2-23.8 66.1-7.8 14.3-20.1 22.6-35.3 26.1-22.3 5.2-45.1-7.9-52.9-30.2-1.8-5.2-3.1-11-10-15.4 3.3 6.6 2.7 11.8 2.6 17-.2 12.3-11 19.7-21.8 14.9-9.3-4.1-10.7-13.1-11.1-22.1-1.1-21.5 2.4-42.8 4.4-64.1 1.7-18.1 1.6-36.2-5.2-53.4-2.4-6.1-4.4-12.7-11.3-16.9 1.2 6.8 2.9 12.6 3.2 18.5 1.2 22.4-3.8 43.8-9.5 65.1-1.7 6.5-6.1 9.8-12.9 10.2-19.1.9-33.9-9.9-45.6-22.9-12.1-13.4-19.9-30.8-23-49.8-2.3-13.9-5.5-27.5-10.1-40.8-6.4-18.4-12.5-28.4-23.1-35.7 12.6 22.8 18.4 45.8 16.5 70.8-.1 1.5.5 3 .9 4.5 6.4 28.5 19.5 53.7 33.7 78.4 4.1 7.1 6.3 14.8 4.8 22.8-3.3 18.1-11.8 33.1-25.7 44.5-.1.2-.2.5-.3.7-.1.1-.4 0-.6.1.3-.3.6-.5.9-.8.3-11.4.8-22.9-7.8-32.5-3.2 11.5-7.8 18.2-23 32.6 0 0-20.4 7.1 13.3 20.2 54.8 21.1 397.4 39 721.9 12.7z" fill="#f58553" opacity=".8"/></svg>