<svg xmlns="http://www.w3.org/2000/svg" width="1016" height="493" xmlns:v="https://vecta.io/nano"><path d="M956.4 464.1c-283.9 0-436.8-4.8-720.7-4.9-5.5 0-10.9-.2-16.4-.3 17.5-8.6 29.5-19.4 35.5-33.6 3.5 1.4 5.1 3.3 7.3 4.9 35.4 25.4 78.7 21.8 116.9 6.1 15-6.2 25.6-14.1 20.3-26.7 18.3 1.8 30.7 6.9 38 16.8 6.8 9.3 17.1 9.9 28.4 2.4 5.2-3.5 7.2-7.5 7.8-12.2.8-5.9-5.2-10.4-8.6-16 8.3.6 12.6 3 17 5.4 14.3 7.8 24.3 17.3 30.9 28.1s18.2 18.9 37.5 21c41.7 4.6 96.6-11.9 105.4-41.2 5.2-17.3 12.4-34.4 27.3-49.8 7-7.2 13.9-14.7 30-19.1-3.5 5.2-6.4 8.9-8.6 12.8-7.6 13.2-11.9 26.5-.4 39.9 10.1 11.8 28.8 13.8 45.4 5 15.3-8.2 17.7-17.8 7-29.9 21.6 3.5 31.9 10.7 37.7 21 4.2 7.5 10.6 8.8 22.4 5 11.7-3.8 17.8-10.3 21.7-17.5 6.5-12 9.6-24.3 9.1-36.9-.3-6.8-.1-13.7-8.3-19.2l-2.7-3.6c25 6.1 30.7 20.1 37.2 33.5 3.8 8 5.3 16.3 8.7 24.4 1.4 3.3 3.5 7.4 10.4 8.1 6.9.6 11-2.9 13.6-5.9 18.5-21.4 25.1-43.2 3.7-65.5-13.2-22.3-10.8-43.8 9.1-64.4l-.2-.1c.8 11.8-5.3 23.3-1 35.3 3.6 10 9.3 19.2 18.6 27.8 7.6 7 13.5 14.5 16.2 22.7l3 11.4-.4 15.7c-5 9.9-10.8 19.7-14.9 29.7-3.2 7.8.2 14.9 12.1 19.6 11.4 4.1 15 47.5 4 50.2z" fill="#f58553" opacity=".8"/></svg>