<svg xmlns="http://www.w3.org/2000/svg" width="1016" height="493" xmlns:v="https://vecta.io/nano"><path d="M855.6 466.9c88.7 5 116.4-17.7 116.4-17.7 55-127.8-27.7-214.2-27.7-214.2-25.4-5.3-45.7-63.5-49.1-88.5-1-7.4 0-15.3 1.7-22.9 4.1-18.1 11.6-34.5 25.2-47.5 6.2-5.9 13.3-10.4 23.8-8.6-14.4-8.8-28.6-11-43.6-6.5-13.5 4-24.5 11.9-34.6 21.5-10.7 10.1-19.9 21.2-25.7 35-2.7 6.4-4.9 13-5.5 19.7-.8 8.9-1 18 .8 27 1.7 8.8 4.4 17.4 8.7 25.2 5.3 9.6 10.8 19 14.3 29.4 3.6 10.7 5.2 21.5 3.6 32.5-1.8 13-7.4 24.4-17.1 33.6-8 7.6-16.8 7.1-23.2-1.9-2.8-4-4.8-8.2-6-13.2-2.5-10.6-1-20.1 5.6-28.5 7.8-9.9 11.9-20.5 9.2-33.2-2.6-12.3-14.9-23.6-25.4-24 4.4 3.5 10.6 11.2 13.3 16.3 4.5 8.5 3.7 18.3-3.9 25-5.6 5-10.7 10.7-14.9 17-3.2 4.8-6.2 9.7-7.3 15.4-.6 2.9-.2 6-.4 9-.1 1 .3 2.7-1.8 1.7-5.6-2.4-10-6.1-10.2-14.2-.1-4.3 2.3-8 2.4-12.1.4-10.4-8.1-21-19.2-22.8-10.2-1.7-18.3 2.7-23.9 14.1l7-2.3c2.4-.8 5-.2 7.4-.2 7.5 0 14.8 8.2 13.3 16.1-1.3 6.7-4.7 12.4-7.1 18.6-4.3 11-10.6 21.1-14.6 32.3-4.2 11.7-7.1 23.5-4.7 36.1.4 2.2 2.1 4.1 1.4 7.1-7.7-8.4-16-15.4-25.6-20.9-8.4-4.8-17.1-8.9-26.6-10.9-2.2-.5-3.1-1.6-3.5-3.4-1-4.3-3.5-7.1-7.8-7.6-4.7-.6-7.3 2.6-9.1 6.2-1.1 2.1-2.1 2.2-4.2 1.9-15.6-2.4-27-11-35.9-23.4-11.6-16.1-16.4-34.1-14.3-54 1.8-16.7 8.8-30.9 19.8-43.3 11.2-12.6 25.1-21.4 40.4-28.4-.3-.2-.5-.3-.7-.4h-.8c-19.8 3.4-45.4 14.5-59.5 31.4-.2.2-.4.4-.5.6-4.2 4.2-7.6 9-10.4 14.2-5.7 10.6-8.7 21.9-10.5 33.7-1.3 8.6-1.7 17.3-.4 25.8 1.7 11 5.3 21.5 10.9 31.3 5.3 9.2 11.9 17.5 17.4 26.5 2.1 3.5 1.9 6.1-1.3 8.3-1.9 1.3-4.1 2.5-6.2 3.3-7 2.8-14.2 2.9-21.5 1.6-15.1-2.8-26.4-10.4-32-25.2-4.9-12.9-3.5-25.9-.3-38.8 3.7-15.1 9.8-29.5 13.6-44.5 3.4-13.6 6.3-27.3 7.2-41.3.7-10.6.7-21.2-.9-31.7-1.1-4.1-.7-8.7-3.7-12.2-.1-4.3-2.3-7.9-4.1-11.6-3.3-8.1-8.7-14.6-16-19.4 3 4.4 6.1 8.5 8.8 13.1.4.6.9 2.1 2.4 1.4-.1 4.2 3.1 7.3 3.7 11.3-.2.5-.2.9.4.9v.1c1.2 7.3 3.7 14.5 3.9 22 .3 7.1-.3 14.1-1.3 21.1-1.3 9.2-3 18.2-6 26.9-2.6 7.9-5.8 15.6-8.8 23.4-3.5 8.9-7.3 17.7-10.4 26.7-5 14.6-10.8 28.9-14.1 44-3.9 17.8-2.5 34.6 6.9 50.4.9 1.5 1.3 3 1.4 4.8.6 12.2-6.6 21.6-20.3 22.4-16.6 1-29.5-7-33.7-22.1-2.2-7.7-1.7-15.6 0-23.4 3.3-15.1 10.6-28.4 19.6-40.7 5-6.9 8.4-14.5 9-22.9 1.2-17.5-5.3-31.9-19.2-42.6-5.2-4-11.1-6.6-18.1-5.4-11.9 2-15.8 14.7-16.5 26.1 2-2.7 3.8-5.4 5.8-7.9 3.6-4.6 8.7-5.4 13.8-4.2 13.2 3.2 19.3 17.2 12.7 28.9-2.6 4.6-6 8.6-10.2 12-5.1 4.2-9.4 9.5-14.6 13.5-5.9 4.6-11.3 9.9-15.4 15.9-5.3 7.8-11.6 14-20.1 17.9-7.2 3.4-17.3 4.2-22.7-2.3-4.7-5.6-4.4-12-2.2-18.4 6.6-18.8 14.3-37.2 18.8-56.7 2.5-11 3.9-22 3.8-33.2-.3-21.1-7.5-39.9-19.9-56.8-3.7-5.1-8-9.8-12.4-15.2-.4 3.1.3 5.3.7 7.4 2.6 12.8 3.7 25.8 4.4 38.8.4 7.8-.4 15.6-1.2 23.5-1.1 11.2-3.4 22-7.2 32.5-2.7 7.4-6.8 14.1-11.8 20.1-4.4 5.3-9.9 9.5-16.1 12.2-8.3 3.6-17.8-2-19.4-11.8-2.7-16.8-.4-32.8 9.7-47.1-1-.4-1.7.1-2.6.8-7.5 5.9-14.3 12.3-19.6 20.5-9.3 14.2-13.6 29.9-15.9 46.3-1.8 12.5-3.7 24.9-7.7 37-4.7 14.2-21.1 24.3-36 21.8-9.4-1.6-15.8-7.4-20.7-15-14.2-22.3-12.3-45.1-1.2-67.9 4.2-8.6 10-16.2 16.3-23.7-12.6-1.7-22.7 2.7-31.1 11-10.2 10-14.7 23.2-18.9 36.4-1 3.1-1.8 2.2-3.3 1-13.5-10.8-22.1-24.6-25.5-41.7l-1.5-9.3c.1-11.7 1.6-23.2 5.6-34.4-1 1.9-2.9 2.8-4 4.5-13.7 20.3-16.3 43.1-14.6 66.6.4 5.3-.6 10.2-2.3 14.9-2.9 8.1-8.2 9.6-14.7 4.1-4.5-3.8-8.7-8-12.7-12.4-11.8-13-18.2-28.2-18.8-45.9-.7-20 4.4-38.7 12-56.9 8.6-20.8 11.4-41.9 6.3-63.9-2.9-12.3-8.5-23.3-15.9-33.2-3.8-5.2-8.9-9.8-14.6-13.4-16.3-10.4-33-13-50.8-3.4 1.5 1.1 2.8 1.6 4.3 2 12 3.2 22.9 8.9 31.5 17.9 10.4 10.9 12.9 24.4 9.9 38.9-2.8 13.6-7.5 26.6-12.9 39.3-7.7 18-16.9 35.4-22.4 54.4-2.5 8.6-4.2 17.3-4.6 26.2 0 .7-.1 1.8-.5 2.1-1 .7-1.7-.4-2.2-1.1-2.7-3.3-4.8-7-6.3-11-5.2-14.5-3.7-28.9.6-43.1 2.3-7.6 5.3-14.9 8.4-23.4-4.9 3.3-7.2 7.5-9.7 11.4-11.1 17.6-13.3 37.1-11 57.2 1.6 14.1 6.3 27.8 5.4 42.3-.5 7.6-.8 15-6.9 21.1 0 0-52.7 96.4-18.6 155.8 4.8 8.2 402.2 17.8 402.2 17.8 2.1 0 4.2-.1 6.3-.1h26.1 4.5c3.3-1.9 5.9-4.2 8-6.9-2 2.7-4.6 5-8 6.9h18.2c1.4 0 2.9.1 4.3.1h224.8l82-.1 54.6.1m-32.5-240.5c0 .2 0 .4-.1.6 0-.2 0-.4.1-.6zm-250.7-90.5c1 .8 1.5 2.3 2.5 3.1-1-.8-1.5-2.2-2.5-3.1zM47.5 347.7h0l.1.1-.1-.1z" fill="#df513d"/></svg>