<svg xmlns="http://www.w3.org/2000/svg" width="1016" height="493" xmlns:v="https://vecta.io/nano"><path d="M976.7 324.6c1.2 3.8 2 7.8 2.3 12.2 0 0 .2-78.3-70.8-125.5-12.5-10.6-22.2-23.3-29.3-38-5.1-10.5-8.3-21.6-8.3-33.2-.1-17.2 5.7-32.6 15.9-46.4 4.7-6.3 9.8-12.3 16.2-17.1.8-.6 1.4-1.5 2.7-2.8-6.5 1-11.6 3.5-16.6 6-12.1 6.1-21.8 15-29 26.4-6.6 10.5-9.9 22.1-10.5 34.4-1 21.9 5.7 41.8 16 60.8 5.2 9.7 11 19 12.9 30.2 3.4 21 1.3 40.8-11.3 58.8-8.7 12.4-26.3 19.6-40.4 16.1-9.4-2.3-14.3-9.3-17.4-17.8-5.7-15.9-4.3-31.1 5.6-45.2l9.5-13.8c-4.6 1.2-16.2 14.7-20.4 23.3-4.8 9.9-1.6 20.5-2.9 30.7-10.5-3.3-23.4-14.4-22-27.2.6-4.9.1-9.9 1.4-14.8 1.6-6-1.1-11.6-6.5-14.7-3.5-2-7.2-3.4-11.3-3.1 3 1.6 6.3 2.3 8.8 4.9 1.8 1.9 2.9 4 3 6.6.4 13.8-1.6 26.9-8.7 39.3-8.9 15.5-13.4 32.4-12.5 50.5.3 6.8 2.6 13.1 7.3 18.2 8.3 9.1 10 20.4 5.3 31.4-.8 1.8-1.4 3.4-4 1.6-11.7-8.5-23.2-17.2-33.1-27.7-4.4-4.7-8.1-10-12.5-14.6-8-8.6-18.4-11.8-29.8-13.4-16.9-2.4-33.7-5.1-47.7-16.3-9.1-7.3-15-16.8-19.5-27.2-5.6-13.1-8.9-26.8-8.3-41.2.4-9.2 2.3-17.9 5.6-26.4l.8-2.3c-2.1.7-2.4 2.2-2.8 3.4-4.7 11-8.4 22.4-10.2 34.2-1.2 7.4-.3 14.8 1.8 22.2 3.8 13.3 10.6 25.1 18.1 36.5l10.4 16.2c5.3 8.7 2.1 19.2-7 24.1-8.6 4.6-17.7 5.3-27.1 4.2-.6-.1-1.3.1-1.9.1h-1.7c-4.6-1.7-9.2-3.3-13.7-5.2-18.1-7.4-30.5-23.9-30.6-44.5-.1-12.9 3.2-24.8 6.9-36.9l11.7-37.5a18.49 18.49 0 0 0 .7-7.5l-5.7 14.5-15.2 40.9c-4.2 12.4-8.5 24.9-8.3 38.2.2 12.9 4.3 24.6 12 35.1 3.3 4.5 7.9 8.2 10 13.6 3.9 10.2 1.2 19.3-4.6 27.8-10 14.4-24.2 17.8-40.8 15.8-7.4-.9-14.4-2.8-21.2-5.4-13.5-5.2-20.2-16.3-23.8-29.4-5.7-20.3-1.6-39.1 10-56.5 7.4-11 16.1-21 24.3-31.4 10.1-12.8 9.1-28.6-2.4-40.2-5.1-5.2-10-10.4-17.8-11.5-3.2-.4-6.1-.3-8.9 1.6 6.9-.1 12.6 2.5 17.4 7 12 11.3 13.3 24.9 4.4 39.4-4.8 7.9-10.6 15-17.1 21.5-9.4 9.5-17.7 20-26.7 29.9-7 7.8-15.4 14.1-26.1 15.8-13.6 2.2-29.5-4.4-30.7-21.9-.9-12.8 2.4-24.6 7.2-36.1 4-9.4 8.8-18.5 13-27.8 5.8-12.9 6.5-26.4 4.5-40.3-1.4-10-4.1-19.7-6.6-29.4-.2-.9-.5-1.8-1.4-2.3-1.3.4-.9 1.5-.9 2.3-.6 16.4-3.1 32.5-6.7 48.5-2.8 12.3-6.2 24.3-12.2 35.6-6.3 11.7-15.3 19.6-28.6 22.5-9.2 2-15.2-2.5-18.5-9.7-5.2-11.4-6-23.7-4.4-36.2l1-8.4c-3.9 7.5-6.3 14.3-8.4 21.3-4.3 13.8-5.5 28.1-7.5 42.4-1.6 12-3.5 23.9-8.5 35l-15.9 20.6c-7.4 5.2-16.4 7.7-26.8 7.3-8.6-.3-15.7-4.8-21.2-11.5-11.3-13.8-16.8-30.1-19.1-47.5-2-15.1 2.1-29.3 7.3-43.2 1.8-4.7 4.6-8.9 7.1-13.3-6.2 4.5-11.5 9.7-14.3 16.9-3.2 8-5.8 16.3-9 24.3-1.6 4.1-3.3 8.9-8.4 9.5-4.8.5-7.6-3.5-10.4-6.9-4.7-5.8-9.4-11.7-13-18.2-5.2-9.3-7.4-19.5-8.5-30-.4-3.9-.7-7.8-1-11.7-2.1 14.9-3.2 29.7-.7 44.6 1 5.9 1.6 11.9.6 18-2.6 14.7-14.2 19.7-27.4 15.7-17.4-5.3-28.3-17.4-35.2-33.6-7.9-18.4-10-37.7-8.6-57.4 1-14.5 5.1-28.4 9.8-42.2 4.3-12.5 9.8-24.5 13.9-37 5.1-15.3 2.6-29.9-3.1-44.4-2.8-7.1-6.5-13.4-12.4-18.4-1.3-1.1-2.5-2.2-4.9-2.4 1.8 5 3.8 9.7 5.1 14.5 5.3 19.1 2.5 37.4-5.9 55-4.2 8.9-9.2 17.4-13.4 26.2-9.6 19.9-15.1 40.9-18.5 62.6-1.5 9.5-2.4 19.1-2.3 29.9-8.9-10.4-16.6-20.1-23.5-30.6 1.1 6.1 2.5 12.1 3.3 18.2 2.1 14.7 4.5 29.5 1.3 44.4 0 0-16.9-12-33.3 37-1.4 4-2.7 8.5-4 13.4 7.8-5.5 11.1-13 11.4-22.1 0-.6.1-1.2.3-2.7 1.8 1.3 3.2 2.8 4.3 4.4C6.6 401.3 52 444 52 444c156.8 14.2 297 20.4 417.6 22.2 1.8 0 3.5.1 5.3.1 148.6 2 267.3-3 350.8-8.8 1.1-.1 2.1-.1 3.2-.2C918 451 966 444 966 444c21.2-18.3 15.7-82.9 10.7-119.4z" fill="#f26c52"/></svg>